<svg fill="#e29334" version="1.1" id="Capa_1" xmlns="http://www.w3.org/2000/svg" xmlns:xlink="http://www.w3.org/1999/xlink" width="30px" height="30px" viewBox="0 0 566.057 566.058" xml:space="preserve" stroke="#e29334"><g id="SVGRepo_bgCarrier" stroke-width="0"></g><g id="SVGRepo_tracerCarrier" stroke-linecap="round" stroke-linejoin="round"></g><g id="SVGRepo_iconCarrier"> <g> <g> <path d="M278.28,291.403c0,1.166,0,98.977,0,99.02c0,7.87,6.493,13.908,14.363,13.908s14.296-6.033,14.301-13.898l-0.02-86.665 c0-0.817,0.646-1.482,1.463-1.482h6.158c0.818,0,1.568,0.665,1.568,1.482c0,0-0.019,243.781-0.019,243.811 c0,10.15,8.194,18.417,18.346,18.417c10.15,0,18.346-8.171,18.346-18.322c0-0.028,0-144.154,0-144.154 c0-1.047,0.482-1.487,1.521-1.487h6.067c1.032,0,1.587,0.436,1.587,1.487c0,0,0.024,143.801,0.024,144.154 c0,10.151,8.285,18.322,18.432,18.322c10.15,0,18.23-8.267,18.23-18.417c0-0.029,0-243.811,0-243.811 c0-0.817,0.665-1.482,1.482-1.482h6.254c0.817,0,1.458,0.665,1.458,1.482c0,0-0.028,86.66-0.023,86.665 c0.005,7.865,6.512,13.898,14.382,13.898s14.286-6.038,14.286-13.908c0-0.043,0-97.854,0-99.02 c0-19.503-18.331-34.98-37.083-34.98c-0.479,0-83.644,0-84.122,0C296.525,256.423,278.28,271.896,278.28,291.403z"></path> <circle cx="167.977" cy="41.611" r="41.611"></circle> <path d="M71.238,152.164c-0.105,0.363-32.475,106.062-32.489,106.101c-3.509,11.451,2.926,23.577,14.377,27.09 c11.447,3.51,23.567-2.921,27.086-14.358c0.01,0,32.412-105.646,32.412-105.646c0.191-0.449,1.162-2.3,3.423-2.3 c0.206,0,4.566,0,4.566,0h0.009c1.291-0.019,2.042,1.076,1.702,2.314L57.458,377.652c-0.349,1.238,0,3.399,2.262,3.399h45.508 c1.291,0,2.233,1.047,2.233,2.333c0,0-0.01,154.654-0.01,154.707c0,15.443,12.518,27.966,27.966,27.966 s27.965-12.518,27.965-27.966l0.005-82.396H147.24c-2.921,0-5.58-1.301-7.296-3.566c-1.765-2.334-2.329-5.451-1.511-8.344 l15.907-52.331c-3.203,1.86-6.918,2.902-10.844,2.902c-2.137,0-4.265-0.32-6.321-0.951c-5.503-1.688-10.017-5.417-12.718-10.5 c-2.696-5.082-3.256-10.915-1.568-16.414c0,0,20.55-67.1,20.808-67.96c1.205-4.184,12.871-41.611,43.777-41.611h6.34 c-3.055-2.529-5.709-5.537-7.822-8.913c-1.516,1.789-3.72,2.816-6.077,2.816h-0.478l-0.531-0.062 c-6.173-0.746-9.142-7.029-14.062-17.438c-0.511-1.081-1.028-2.17-1.54-3.232l-0.32-0.665c-0.693-1.43-1.559-3.213-2.075-4.786 c-2.501-7.626-1.602-16.409,2.29-22.386c3.141-4.824,8.09-7.803,13.928-8.382c0.75-0.076,1.53-0.114,2.31-0.114 c5.049,0,10.433,1.587,16.031,4.719c6.321-4.652,14-7.186,21.927-7.186c1.435,0,2.85,0.11,4.26,0.272l-8.004-26.196 c-0.339-1.239,0.411-2.333,1.702-2.314h0.01c0,0,4.36,0,4.566,0c2.262,0,3.232,1.855,3.423,2.3c0,0,3.792,12.374,8.903,29.042 c2.716,1.19,5.297,2.701,7.679,4.533c5.876-3.428,11.527-5.164,16.83-5.164c0.775,0,1.544,0.039,2.3,0.11 c5.833,0.579,10.782,3.553,13.923,8.382c3.892,5.972,4.791,14.755,2.29,22.376c-0.488,1.492-1.257,3.113-2.137,4.925l-0.258,0.531 c-0.511,1.066-1.028,2.156-1.544,3.247c-4.92,10.409-7.889,16.691-14.1,17.418l-0.445,0.053l-0.502,0.005 c-2.4,0-4.647-1.066-6.168-2.921c-0.244-0.301-0.463-0.603-0.655-0.909c-0.234,0.402-0.493,0.789-0.741,1.181 c0.966,3.146,1.894,6.172,2.769,9.032c2.395,0.272,4.752,0.746,7.028,1.473c6.79,2.166,12.823,6.307,17.987,12.292 c7.841-13,22.63-22.185,38.776-22.185h1.865c1.491-4.872,3.079-10.036,4.695-15.319c-1.104-3.519-1.702-7.258-1.702-11.141 c0-11.494,5.249-22.142,14.047-29.137c4.92-16.046,8.53-27.827,8.53-27.827c0.19-0.45,1.156-2.3,3.423-2.3 c0.206,0,8.587,0.067,8.587,0.067l2.658,17.762l10.754-17.509v17.26l10.643-17.514l2.29,30.71 c8.08,7.033,13.564,17.657,13.564,28.486c0,10.337-4.236,19.704-11.059,26.459h15.825c23.83,0,44.733,19.919,44.733,42.63v99.02 c0,12.087-9.634,21.559-21.932,21.559c-6.244,0-11.891-2.558-15.907-6.66v142.252c0,1.267-0.119,2.505-0.296,3.729 c4.714,8.778,13.98,14.745,24.647,14.745c15.443,0,27.966-12.518,27.966-27.966c0-0.058-0.01-154.707-0.01-154.707 c0-1.291,0.941-2.333,2.232-2.333h45.508c2.262,0,2.611-2.161,2.262-3.399l-64.877-212.278c-0.339-1.239,0.411-2.333,1.702-2.314 h0.01c0,0,4.36,0,4.566,0c2.262,0,3.232,1.855,3.423,2.3c0,0,32.403,105.642,32.412,105.646 c3.52,11.442,15.64,17.868,27.086,14.358c11.446-3.509,17.887-15.639,14.373-27.09c-0.015-0.043-32.384-105.737-32.489-106.101 c-4.953-17.217-17.021-56.423-51.097-56.423h-91.408c-36.572,0-46.029,39.206-50.982,56.423c0,0-9.232,30.169-18.303,59.813 c-9.07-29.644-18.303-59.813-18.303-59.813c-4.953-17.217-14.411-56.423-50.982-56.423h-91.408 C88.259,95.74,76.191,134.946,71.238,152.164z"></path> <circle cx="398.075" cy="41.611" r="41.611"></circle> <path d="M147.226,448.047h28.745c0.827,0,1.43,0.669,1.43,1.496c0,0-0.005,98.499-0.005,98.532c0,2.586,0.56,5.034,1.544,7.258 c2.367,3.791,5.604,6.976,9.443,9.271c2.133,0.895,4.476,1.396,6.938,1.396c9.897,0,17.92-8.023,17.92-17.92l0.005-98.532 c0-0.827,0.669-1.492,1.492-1.492c0,0,5.527,0,6.187,0c0.655,0,1.521,0.67,1.521,1.492l0.004,98.532 c0,3.456,0.995,6.675,2.692,9.414c3.161,5.102,8.788,8.511,15.229,8.511c9.897,0,17.92-8.023,17.92-17.92 c0-0.034-0.005-98.532-0.005-98.532c0-0.827,0.603-1.497,1.43-1.497h27.631c1.444-0.005,1.669-1.391,1.444-2.185L276.286,404.8 c-3.504-3.82-5.656-8.85-5.656-14.377v-4.203l-23.318-76.604c-0.22-0.794,0.172-1.497,0.999-1.482c0,0,6.134,0,6.264,0 c1.454,0,2.07,1.186,2.194,1.473c0,0,7.836,25.508,13.866,45.111v-63.313c0-4.403,0.794-8.702,2.233-12.771 c-4.103-5.565-9.539-10.409-16.672-12.68c-2.754-0.88-5.756-1.387-9.037-1.387H187.46c-21.841,0-33.278,25.13-36.453,36.166 c-0.067,0.234-20.812,67.975-20.822,68.004c-2.252,7.339,1.875,15.113,9.213,17.365c7.334,2.252,15.104-1.869,17.361-9.204 c0.005,0,20.612-67.281,20.612-67.281c0.125-0.287,0.741-1.473,2.195-1.473c0.129,0,6.536,0,6.536,0 c0.827-0.015,1.31,0.688,1.09,1.481l-41.415,136.252C145.553,446.66,145.777,448.047,147.226,448.047z"></path> <path d="M187.986,228.367c0,16.247,13.172,29.419,29.419,29.419s29.419-13.172,29.419-29.419c0-2.008-0.21-3.969-0.593-5.872 c-0.272-1.338,0.397-2.917,1.688-3.356c1.406-0.473,2.644-0.679,3.634-0.765c1.358-0.11,3.601,0.363,4.552,1.348 c5.408,5.637-2.127,23.729,0.229,23.433c2.338-0.273,6.034-8.884,9.644-16.39c0.593-1.229,1.592-3.213,2.018-4.519 c2.644-8.061,0.459-19.756-9.706-20.765c-6.163-0.612-12.584,2.634-17.103,5.67c-1.143,0.765-2.764,0.603-3.763-0.33 c-5.254-4.891-12.297-7.889-20.043-7.889c-7.449,0-14.248,2.778-19.426,7.339c-1.033,0.899-2.687,1.066-3.839,0.315 c-4.451-2.864-10.452-5.694-16.247-5.111c-10.17,1.009-12.35,12.704-9.706,20.765c0.43,1.306,1.425,3.28,2.018,4.519 c3.61,7.501,7.306,16.113,9.663,16.399c2.348,0.296-5.178-17.791,0.229-23.428c0.942-0.99,3.18-1.473,4.552-1.349 c0.679,0.053,1.473,0.177,2.348,0.383c1.329,0.33,2.008,1.821,1.711,3.16C188.225,224.002,187.986,226.153,187.986,228.367z"></path> <path d="M343.573,196.137c-9.386,4.963-15.788,14.822-15.788,26.177c0,16.347,13.249,29.596,29.602,29.596 c16.352,0,29.601-13.249,29.601-29.596c0-10.107-5.068-19.024-12.8-24.365v-17.332l-7.979,13.436 c-0.87-0.273-1.76-0.502-2.663-0.693v-12.742l-7.277,12.125c-1.177,0.043-2.338,0.153-3.48,0.33v-12.455L343.573,196.137z"></path> </g> </g> </g></svg>