<svg fill="#e29334" height="64px" width="64px" version="1.1" id="Layer_1" xmlns="http://www.w3.org/2000/svg" xmlns:xlink="http://www.w3.org/1999/xlink" viewBox="0 0 512 512" xml:space="preserve" stroke="#e29334"><g id="SVGRepo_bgCarrier" stroke-width="0"></g><g id="SVGRepo_tracerCarrier" stroke-linecap="round" stroke-linejoin="round"></g><g id="SVGRepo_iconCarrier"> <g> <g> <path d="M508.289,486.599L384.18,283.512c-3.033-4.963-8.429-7.991-14.246-7.991s-11.213,3.027-14.246,7.991l-39.461,64.572 l-99.004-162.007c-3.033-4.963-8.43-7.991-14.246-7.991c-5.816,0-11.213,3.027-14.246,7.991L5.08,486.599 C-1.713,497.713,6.313,512,19.326,512c6.37,0,469.336,0,474.717,0C507.073,512,515.075,497.698,508.289,486.599z M202.977,226.8 l54.894,89.826l-21.502,21.502l-21.586-21.586c-6.519-6.519-17.091-6.519-23.611,0l-21.586,21.586l-21.502-21.502L202.977,226.8z M49.095,478.609l81.077-132.673l27.608,27.609c6.519,6.519,17.091,6.519,23.611,0l21.586-21.586l21.586,21.586 c6.52,6.52,17.091,6.52,23.611,0l27.608-27.609l81.077,132.673H49.095z M395.993,478.609l-60.199-98.508l34.14-55.866 l94.339,154.374H395.993z"></path> </g> </g> <g> <g> <path d="M158.109,34.237C146.47,13.365,124.389,0,100.021,0s-46.45,13.368-58.089,34.241C4.857,38.989-9.061,79.889,6.331,108.486 c8.58,15.938,24.472,25.079,43.604,25.079h100.174c19.118,0,35.006-9.148,43.592-25.098 C209.083,79.891,195.249,38.974,158.109,34.237z M164.299,92.64c-2.729,5.07-7.371,7.534-14.19,7.534H49.935 c-6.834,0-11.479-2.459-14.201-7.515c-4.769-8.862-2.721-27.016,15.597-25.36c7.651,0.677,14.8-3.951,17.289-11.229 c4.636-13.565,17.255-22.678,31.402-22.678s26.766,9.114,31.402,22.678c2.488,7.277,9.621,11.901,17.289,11.229 C167.096,65.66,169.066,83.785,164.299,92.64z"></path> </g> </g> <g> <g> <path d="M445.065,0c-24.445,0-46.53,13.379-58.17,33.958c-2.829-0.371-5.704-0.567-8.613-0.567 c-24.368,0-46.45,13.368-58.089,34.241c-37.139,4.756-50.96,45.715-35.601,74.246c8.578,15.938,24.472,25.079,43.602,25.079 h100.174c26.982,0,45.498-18.144,49.106-41.78c20.938-11.62,34.372-33.843,34.372-58.394C511.848,29.959,481.889,0,445.065,0z M428.369,133.565H328.195c-6.834,0-11.479-2.459-14.201-7.515c-4.819-8.952-2.621-27.008,15.597-25.36 c7.676,0.67,14.801-3.951,17.288-11.229c4.637-13.565,17.257-22.678,31.403-22.678s26.766,9.114,31.403,22.678 c2.487,7.278,9.631,11.904,17.288,11.229c7.031-0.637,11.917,1.279,14.925,5.838C447.515,115.04,445.835,133.565,428.369,133.565z M470.164,88.786c-0.136-0.213-0.254-0.435-0.393-0.646c-7.647-11.591-19.453-18.733-33.401-20.512 c-4.576-8.204-10.77-15.242-18.076-20.771c6.172-8.263,16.002-13.467,26.771-13.467c18.412,0,33.391,14.979,33.391,33.391 C478.456,75.077,475.378,82.829,470.164,88.786z"></path> </g> </g> </g></svg>